<?xml version="1.0" encoding="UTF-8" standalone="no"?>
<!DOCTYPE svg PUBLIC "-//W3C//DTD SVG 1.1//EN" "http://www.w3.org/Graphics/SVG/1.1/DTD/svg11.dtd">
<svg width="100%" height="100%" viewBox="0 0 3544 3544" version="1.1" xmlns="http://www.w3.org/2000/svg" xmlns:xlink="http://www.w3.org/1999/xlink" xml:space="preserve" xmlns:serif="http://www.serif.com/" style="fill-rule:evenodd;clip-rule:evenodd;stroke-linejoin:round;stroke-miterlimit:2;">
    <g transform="matrix(1,0,0,1,0,153.53671)">
        <path d="M1771.654,0C2019.61,0 2458.315,826.546 2458.315,826.546C2458.315,826.546 3379.973,988.362 3456.596,1224.182C3533.219,1460.003 2882.694,2132.653 2882.694,2132.653C2882.694,2132.653 3013.606,3059.206 2813.005,3204.951C2612.404,3350.697 1771.654,2939.871 1771.654,2939.871C1771.654,2939.871 930.903,3350.697 730.302,3204.951C529.701,3059.206 660.613,2132.653 660.613,2132.653C660.613,2132.653 10.088,1460.003 86.711,1224.182C163.334,988.362 1084.992,826.546 1084.992,826.546C1084.992,826.546 1523.697,0 1771.654,0Z" style="fill:rgb(255,153,0);"/>
    </g>
    <g transform="matrix(1,0,0,1,0,153.53671)">
        <clipPath id="_clip1">
            <circle cx="1355.269" cy="1201.732" r="1355.269"/>
        </clipPath>
        <g clip-path="url(#_clip1)">
            <path d="M1771.654,0C2019.61,0 2458.315,826.546 2458.315,826.546C2458.315,826.546 3379.973,988.362 3456.596,1224.182C3533.219,1460.003 2882.694,2132.653 2882.694,2132.653C2882.694,2132.653 3013.606,3059.206 2813.005,3204.951C2612.404,3350.697 1771.654,2939.871 1771.654,2939.871C1771.654,2939.871 930.903,3350.697 730.302,3204.951C529.701,3059.206 660.613,2132.653 660.613,2132.653C660.613,2132.653 10.088,1460.003 86.711,1224.182C163.334,988.362 1084.992,826.546 1084.992,826.546C1084.992,826.546 1523.697,0 1771.654,0Z" style="fill:rgb(255,181,70);"/>
        </g>
    </g>
</svg>
